<svg width="24" height="24" viewBox="0 0 24 24" fill="none" xmlns="http://www.w3.org/2000/svg">
<g clip-path="url(#clip0_271_29949)">
<path d="M9.50204 1.5C12.267 1.5 14.502 3.74 14.502 6.5C14.502 9.26 12.267 11.5 9.50204 11.5C6.74204 11.5 4.50204 9.26 4.50204 6.5C4.50204 3.74 6.74204 1.5 9.50204 1.5ZM9.50204 3.5C7.84704 3.5 6.50204 4.845 6.50204 6.5C6.50204 8.155 7.84704 9.5 9.50204 9.5C11.162 9.5 12.502 8.155 12.502 6.5C12.502 4.845 11.162 3.5 9.50204 3.5Z" fill="black"/>
<path d="M9.50204 13C11.3234 13 12.8991 13.438 14.1822 14.2259L13.4721 16.1426H13.4697C12.4391 15.4068 11.1082 15 9.50204 15C5.46204 15 3.16204 17.58 3.01204 21.5C3.00204 21.775 2.78204 22 2.50204 22H1.50204C1.22704 22 1.00204 21.775 1.01204 21.5C1.17704 16.495 4.36204 13 9.50204 13Z" fill="black"/>
<path d="M18.0595 14.7365C17.9451 14.3173 17.573 14.0199 17.1389 14.0007C16.7048 13.9815 16.308 14.2449 16.157 14.6523L14.8639 18.1426H12.5017C12.2256 18.1426 12.0017 18.3665 12.0017 18.6426V19.6426C12.0017 19.9188 12.2256 20.1426 12.5017 20.1426H15.5598C15.9781 20.1426 16.3522 19.8823 16.4976 19.49L16.9501 18.2685L18.1765 22.763C18.2844 23.1583 18.6225 23.4478 19.0297 23.4935C19.4369 23.5392 19.8307 23.3319 20.0236 22.9704L21.5319 20.1426H23.5017C23.7779 20.1426 24.0017 19.9188 24.0017 19.6426V18.6426C24.0017 18.3665 23.7779 18.1426 23.5017 18.1426H20.9319C20.5626 18.1426 20.2234 18.3461 20.0496 18.672L19.4434 19.8084L18.0595 14.7365Z" fill="black"/>
</g>
<defs>
<clipPath id="clip0_271_29949">
<rect width="24" height="24" fill="white"/>
</clipPath>
</defs>
</svg>
