<svg width="24" height="24" viewBox="0 0 24 24" fill="none" xmlns="http://www.w3.org/2000/svg">
<path fill-rule="evenodd" clip-rule="evenodd" d="M7.64924 17.4248C10.6454 17.4248 13.0742 14.996 13.0742 11.9998C13.0742 11.4061 13.5555 10.9248 14.1492 10.9248C14.743 10.9248 15.2243 11.4061 15.2243 11.9998C15.2243 16.1834 11.8328 19.5748 7.64924 19.5748C3.46567 19.5748 0.0742188 16.1834 0.0742188 11.9998C0.0742188 7.81626 3.46567 4.4248 7.64924 4.4248C8.13337 4.4248 8.60785 4.47036 9.06834 4.55771C9.65165 4.66836 10.0348 5.23093 9.92417 5.81425C9.81352 6.39756 9.25095 6.78073 8.66764 6.67008C8.33858 6.60766 7.99824 6.57484 7.64924 6.57484C4.6531 6.57484 2.22426 9.00369 2.22426 11.9998C2.22426 14.996 4.6531 17.4248 7.64924 17.4248Z" fill="black"/>
<path fill-rule="evenodd" clip-rule="evenodd" d="M16.3988 6.57484C13.4027 6.57484 10.9739 9.00369 10.9739 11.9998C10.9739 12.5935 10.4926 13.0748 9.89885 13.0748C9.30513 13.0748 8.82383 12.5935 8.82383 11.9998C8.82383 7.81626 12.2153 4.4248 16.3988 4.4248C20.5824 4.4248 23.9739 7.81626 23.9739 11.9998C23.9739 16.1834 20.5824 19.5748 16.3988 19.5748C15.9147 19.5748 15.4402 19.5293 14.9797 19.4419C14.3964 19.3313 14.0133 18.7687 14.1239 18.1854C14.2346 17.6021 14.7971 17.2189 15.3804 17.3296C15.7095 17.392 16.0498 17.4248 16.3988 17.4248C19.395 17.4248 21.8238 14.996 21.8238 11.9998C21.8238 9.00369 19.395 6.57484 16.3988 6.57484Z" fill="black"/>
</svg>
