<svg width="24" height="24" viewBox="0 0 24 24" fill="none" xmlns="http://www.w3.org/2000/svg">
<path d="M10.5481 2.00709C9.49585 2.0761 8.13571 2.64386 7.02784 3.74158C6.83169 3.93595 6.51716 3.96009 6.30847 3.77925L5.55273 3.12437C5.34404 2.94353 5.32055 2.62651 5.51327 2.42875C6.95367 0.950699 8.8069 0.116978 10.4172 0.0113788C11.2855 -0.0455563 12.1779 0.105317 12.8844 0.596658C13.6341 1.11808 14.0556 1.943 14.0556 2.94422C14.0556 4.35379 13.029 5.17321 12.059 5.65734C11.1194 6.1263 9.91062 6.44806 8.82466 6.73711C8.78125 6.74867 8.73803 6.76017 8.69504 6.77163C7.51046 7.08732 6.47303 7.37357 5.72475 7.76354C4.98149 8.1509 4.81944 8.47805 4.81944 8.78101C4.81925 8.78753 4.81555 8.90906 5.10671 9.13142C5.40481 9.35906 5.89508 9.59403 6.57958 9.79846C6.80033 9.8644 7.03462 9.92521 7.28041 9.98066C8.32791 9.17559 9.44393 8.41134 10.5578 7.7357C12.7358 6.41455 15.0121 5.36681 16.812 5.07389C17.6975 4.92978 18.6466 4.93769 19.4128 5.37656C20.2717 5.86852 20.6528 6.74727 20.6528 7.76595C20.6528 9.62591 19.1179 10.7486 17.5486 11.3732C15.9129 12.0243 13.8031 12.3331 11.757 12.3758C10.4062 12.4039 9.03906 12.317 7.80282 12.1168C7.10719 12.6825 6.45857 13.2597 5.88412 13.8292C5.11138 14.5951 4.495 15.3252 4.07855 15.9739C3.64751 16.6453 3.5 17.1229 3.5 17.4093C3.5 17.5619 3.55147 17.7265 3.86234 17.9291C4.20904 18.155 4.78908 18.3548 5.61627 18.4782C6.89663 18.6692 8.55689 18.6473 10.3283 18.4439C10.3862 18.3755 10.4445 18.3076 10.5033 18.24C11.8502 16.6916 13.4829 15.279 15.0665 14.2031C16.624 13.1448 18.2366 12.3419 19.5405 12.1282C20.1835 12.0228 20.9292 12.0312 21.5468 12.4249C22.233 12.8623 22.5 13.5975 22.5 14.3641C22.5 15.2896 21.9912 16.0573 21.3728 16.6455C20.7468 17.2409 19.9006 17.7597 18.9597 18.2059C17.071 19.1014 14.6008 19.7971 12.1647 20.2038C11.9026 20.2476 11.6399 20.2882 11.3772 20.3254C10.6025 21.3268 10.0132 22.332 9.68346 23.2737C9.59221 23.5343 9.32062 23.6952 9.05336 23.6257L8.08553 23.3741C7.81827 23.3047 7.65667 23.0312 7.74288 22.7688C7.98526 22.0313 8.34062 21.2962 8.77478 20.5797C7.52638 20.6425 6.34394 20.6089 5.32123 20.4563C4.36717 20.314 3.46283 20.0559 2.77047 19.6047C2.04228 19.1302 1.5 18.3987 1.5 17.4093C1.5 16.5538 1.88851 15.6832 2.39552 14.8934C2.91711 14.0809 3.64079 13.2368 4.47613 12.4088C4.77489 12.1126 5.09077 11.8157 5.42066 11.5202C4.84604 11.3086 4.31904 11.0464 3.89285 10.7209C3.32297 10.2857 2.81944 9.64118 2.81944 8.78101C2.81944 7.35811 3.81192 6.50512 4.80044 5.98995C5.783 5.47788 7.05312 5.13939 8.17679 4.83994L8.18066 4.8389C9.37092 4.5217 10.4114 4.24441 11.1659 3.86785C11.9277 3.48762 12.0556 3.18415 12.0556 2.94422C12.0556 2.5497 11.9163 2.35953 11.7424 2.23861C11.5253 2.0876 11.1313 1.96885 10.5481 2.00709ZM13.6559 17.8705C15.3143 17.4893 16.8723 16.9822 18.1028 16.3987C18.9431 16.0003 19.5813 15.5893 19.9944 15.1964C20.415 14.7962 20.5 14.5171 20.5 14.3641C20.5 14.2031 20.4736 14.1288 20.4641 14.1075C20.4275 14.0912 20.2629 14.0365 19.864 14.1018C18.9908 14.245 17.6676 14.8537 16.1905 15.8574C15.341 16.4345 14.4744 17.1192 13.6559 17.8705ZM10.1794 10.3541C10.6823 10.3793 11.1974 10.387 11.7153 10.3762C13.6274 10.3364 15.476 10.0456 16.809 9.515C18.2085 8.95796 18.6528 8.31685 18.6528 7.76595C18.6528 7.26199 18.4979 7.15737 18.4187 7.11204C18.2469 7.01362 17.8559 6.93033 17.1333 7.04792C15.7171 7.27839 13.7052 8.16567 11.595 9.44569C11.1207 9.73344 10.6467 10.0377 10.1794 10.3541Z" fill="black"/>
</svg>
